<svg xmlns="http://www.w3.org/2000/svg" viewBox="0 0 100 100" width="100" height="100">
  <defs>
    <linearGradient id="zsf" x1="0" y1="0" x2="1" y2="1">
      <stop offset="0" stop-color="#1668a6"/>
      <stop offset="1" stop-color="#16b6ac"/>
    </linearGradient>
  </defs>
  <rect width="100" height="100" rx="24" fill="url(#zsf)"/>
  <g transform="translate(9.86 -229.82) scale(1.6111)">
    <path d="M 40.987617,159.35084 L 40.987617,159.7383 L 40.212987,160.51323 L 39.825667,160.51323 L 40.212987,161.28815 L 40.600307,161.28815 L 40.987617,162.06307 L 41.374937,162.83799 L 42.149567,162.83799 L 42.924197,162.83799 L 43.311517,162.83799 L 43.698827,162.83799 L 43.698827,162.45053 L 44.086147,162.45053 L 44.086147,162.83799 L 44.086147,163.22545 L 43.698827,163.61292 L 43.311517,163.61292 L 42.924197,163.61292 L 42.536877,163.61292 L 42.149567,163.61292 L 41.762247,163.61292 L 41.374937,164.00038 L 40.987617,164.00038 L 40.212987,163.22545 L 38.663727,162.83799 L 38.276407,162.83799 L 37.501777,163.22545 L 37.114457,163.61292 L 36.727147,163.61292 L 35.952507,164.00038 L 35.565197,164.38784 L 35.177877,164.00038 L 34.403247,164.38784 L 34.015927,164.7753 L 34.015927,165.55022 L 34.403247,165.55022 L 34.403247,165.93768 L 34.790567,165.93768 L 35.177877,165.93768 L 35.565197,166.32514 L 35.952507,166.7126 L 36.339827,166.7126 L 36.339827,167.10007 L 36.339827,167.48753 L 36.727147,167.87499 L 37.114457,167.87499 L 37.501777,168.26245 L 37.889087,168.64991 L 37.889087,169.42483 L 38.276407,169.81229 L 38.663727,169.81229 L 38.663727,170.19976 L 39.051037,170.19976 L 39.438357,170.19976 L 40.987617,170.19976 L 41.374937,170.19976 L 41.762247,170.19976 L 42.149567,170.58722 L 42.536877,170.58722 L 42.536877,170.19976 L 43.311517,170.58722 L 44.086147,170.97468 L 43.698827,171.36214 L 43.698827,171.7496 L 43.698827,172.13706 L 44.086147,172.13706 L 45.635407,172.91198 L 46.022727,173.29945 L 46.022727,175.62421 L 46.022727,176.01167 L 46.410037,177.56152 L 46.022727,177.56152 L 45.635407,177.56152 L 45.248097,177.56152 L 44.860777,177.17406 L 44.473457,177.17406 L 44.086147,177.17406 L 43.698827,177.17406 L 43.311517,177.56152 L 42.924197,177.56152 L 42.536877,177.94898 L 42.149567,177.94898 L 41.762247,177.94898 L 41.374937,177.94898 L 41.374937,177.56152 L 40.987617,177.56152 L 39.825667,176.7866 L 39.438357,176.7866 L 39.051037,175.62421 L 38.663727,175.62421 L 37.889087,174.46183 L 37.889087,174.07437 L 37.501777,173.68691 L 37.889087,173.29945 L 37.501777,172.91198 L 37.501777,172.52452 L 37.501777,172.13706 L 37.114457,172.13706 L 36.727147,171.7496 L 35.952507,170.97468 L 35.565197,170.58722 L 35.177877,170.58722 L 34.790567,170.58722 L 34.403247,170.19976 L 34.015927,170.19976 L 33.241297,169.81229 L 32.853987,169.81229 L 32.466667,169.42483 L 32.079347,169.81229 L 31.692037,169.81229 L 31.692037,170.19976 L 30.917407,169.03737 L 31.304717,169.03737 L 30.917407,168.64991 L 30.917407,168.26245 L 30.530087,168.26245 L 30.142777,168.26245 L 29.755457,168.26245 L 29.368137,168.64991 L 28.980827,168.64991 L 28.593507,168.64991 L 27.818877,168.64991 L 27.431557,168.64991 L 27.044247,168.64991 L 26.656927,168.64991 L 26.656927,168.26245 L 26.269617,167.87499 L 25.494977,167.87499 L 24.720347,168.26245 L 24.333037,168.26245 L 23.945717,168.64991 L 22.783767,168.26245 L 22.396457,168.26245 L 22.009137,167.87499 L 21.621817,168.26245 L 20.847187,168.64991 L 20.847187,169.03737 L 20.459877,169.42483 L 20.459877,169.81229 L 20.072557,170.19976 L 19.685237,170.19976 L 19.297927,170.58722 L 19.685237,170.58722 L 20.072557,170.58722 L 19.297927,170.97468 L 19.297927,170.58722 L 18.523297,169.81229 L 18.135977,169.42483 L 18.135977,169.03737 L 17.748667,167.87499 L 17.748667,167.48753 L 17.361347,167.48753 L 16.974027,167.10007 L 16.199398,166.7126 L 15.812088,166.32514 L 15.424768,165.93768 L 15.424768,165.55022 L 15.424768,164.7753 L 15.812088,164.38784 L 15.424768,164.38784 L 15.037448,164.38784 L 14.650138,164.00038 L 13.488188,164.00038 L 13.100868,164.00038 L 12.713558,164.00038 L 11.938928,164.00038 L 11.938928,164.38784 L 11.551608,164.38784 L 11.164288,164.38784 L 10.776977,164.7753 L 10.002347,165.16276 L 9.6150275,165.55022 L 8.8403975,165.93768 L 8.4530775,165.93768 L 8.0657675,166.32514 L 7.6784475,166.7126 L 6.9038175,167.10007 L 6.5164975,167.48753 L 6.1291875,167.48753 L 5.7418675,167.87499 L 5.3545575,168.26245 L 5.3545575,168.64991 L 5.3545575,169.03737 L 5.3545575,169.42483 L 5.7418675,170.19976 L 6.1291875,170.19976 L 6.5164975,170.58722 L 6.9038175,170.97468 L 7.6784475,171.36214 L 7.6784475,171.7496 L 8.0657675,171.7496 L 8.4530775,172.13706 L 8.8403975,172.52452 L 8.8403975,172.91198 L 9.2277075,173.29945 L 9.2277075,173.68691 L 9.6150275,174.07437 L 9.6150275,174.46183 L 10.002347,174.84929 L 10.389658,175.23675 L 11.164288,175.62421 L 11.164288,176.01167 L 11.551608,176.01167 L 11.938928,176.39914 L 11.938928,176.7866 L 12.326238,176.7866 L 13.100868,176.7866 L 13.488188,176.7866 L 13.488188,176.39914 L 13.488188,175.62421 L 13.875508,175.62421 L 13.875508,176.39914 L 14.262818,176.7866 L 14.650138,176.7866 L 15.424768,176.7866 L 15.812088,176.39914 L 15.812088,176.01167 L 16.199398,176.01167 L 16.974027,176.01167 L 17.361347,176.01167 L 16.586717,175.62421 L 16.974027,175.23675 L 17.748667,174.84929 L 18.135977,174.84929 L 18.135977,175.23675 L 19.297927,174.46183 L 19.297927,174.07437 L 19.297927,173.68691 L 19.685237,174.07437 L 19.685237,174.46183 L 20.072557,174.46183 L 19.685237,174.84929 L 19.685237,175.62421 L 20.072557,175.62421 L 19.685237,176.01167 L 20.072557,176.39914 L 20.072557,176.7866 L 19.685237,176.39914 L 19.297927,176.7866 L 18.910607,176.7866 L 19.297927,177.17406 L 19.685237,177.56152 L 19.685237,177.94898 L 20.072557,177.94898 L 20.072557,178.7239 L 20.072557,179.11136 L 20.459877,179.11136 L 20.847187,179.49883 L 21.234507,179.49883 L 21.234507,179.11136 L 21.621817,179.11136 L 22.396457,179.49883 L 22.783767,179.49883 L 22.783767,179.88629 L 23.558397,180.27375 L 23.558397,180.66121 L 23.945717,180.66121 L 24.720347,181.43613 L 25.107667,181.43613 L 25.882297,181.43613 L 26.656927,181.04867 L 27.044247,181.04867 L 27.431557,180.66121 L 28.206197,180.66121 L 28.593507,180.66121 L 28.980827,181.04867 L 29.368137,180.66121 L 29.755457,179.11136 L 30.142777,179.11136 L 30.142777,178.7239 L 30.142777,178.33644 L 30.530087,178.33644 L 30.530087,177.56152 L 30.530087,177.17406 L 30.530087,176.7866 L 30.530087,176.39914 L 30.530087,176.01167 L 31.304717,176.39914 L 32.079347,176.01167 L 32.466667,176.01167 L 33.241297,175.23675 L 33.628617,175.62421 L 34.015927,176.01167 L 34.403247,176.39914 L 34.403247,176.7866 L 34.790567,176.7866 L 34.790567,177.17406 L 35.177877,177.17406 L 35.565197,177.17406 L 35.952507,177.56152 L 36.339827,177.94898 L 37.114457,177.94898 L 37.114457,178.33644 L 37.114457,179.11136 L 37.889087,179.49883 L 38.276407,179.49883 L 38.663727,179.88629 L 39.051037,179.88629 L 39.825667,180.27375 L 40.600307,180.66121 L 41.374937,180.66121 L 41.762247,181.04867 L 42.536877,181.04867 L 43.698827,180.66121 L 44.473457,180.27375 L 44.860777,180.27375 L 45.248097,180.27375 L 45.248097,180.66121 L 45.635407,180.66121 L 46.022727,180.66121 L 46.797357,181.04867 L 47.184677,182.21105 L 47.184677,182.98598 L 48.346617,182.98598 L 49.121257,182.59852 L 48.733937,182.21105 L 48.346617,182.21105 L 48.346617,181.82359 L 48.733937,180.66121 L 48.346617,179.49883 L 48.346617,179.11136 L 49.121257,178.7239 L 48.346617,177.56152 L 46.797357,173.29945 L 46.022727,171.7496 L 46.022727,171.36214 L 46.410037,170.58722 L 46.797357,169.42483 L 47.184677,168.64991 L 47.184677,168.26245 L 46.797357,167.87499 L 46.797357,167.10007 L 45.248097,165.16276 L 44.860777,164.7753 L 44.860777,164.38784 L 44.860777,163.61292 L 44.860777,163.22545 L 45.248097,162.45053 L 45.635407,162.06307 L 46.022727,161.67561 L 47.184677,161.28815 L 46.797357,161.28815 L 46.022727,160.90069 L 45.248097,160.90069 L 44.860777,160.90069 L 44.473457,160.90069 L 43.698827,160.51323 L 42.536877,159.7383 L 42.149567,159.7383 L 40.987617,159.35084 z M 18.910607,176.7866 L 19.297927,176.01167 L 18.910607,176.39914 L 18.910607,176.7866 z  M 8.4530775,179.49883 L 8.4530775,179.88629 L 8.0657675,179.88629 L 7.6784475,179.88629 L 6.9038175,180.27375 L 6.5164975,180.27375 L 6.1291875,180.27375 L 5.7418675,180.66121 L 5.3545575,180.66121 L 4.9672375,180.66121 L 4.5799175,180.66121 L 4.1926075,180.66121 L 3.8052875,180.66121 L 3.8052875,181.04867 L 3.4179775,181.04867 L 3.0306575,181.43613 L 2.6433375,181.43613 L 2.2560275,181.43613 L 1.8687075,181.82359 L 1.4813975,181.82359 L 1.4813975,182.21105 L 1.8687075,182.59852 L 1.8687075,183.37344 L 1.8687075,183.7609 L 1.8687075,184.14836 L 2.2560275,184.53582 L 2.2560275,185.31074 L 1.0940775,186.47313 L 0.70675752,186.86059 L 1.0940775,187.24805 L 1.8687075,188.02297 L 1.4813975,188.02297 L 1.0940775,188.02297 L 1.0940775,188.41043 L 1.4813975,188.7979 L 1.8687075,189.18536 L 1.8687075,189.57282 L 1.4813975,189.96028 L 1.8687075,190.34774 L 2.2560275,190.34774 L 2.6433375,191.12266 L 3.0306575,191.12266 L 3.4179775,191.89758 L 3.8052875,191.51012 L 4.1926075,191.89758 L 4.1926075,192.28505 L 4.1926075,192.67251 L 4.5799175,192.67251 L 4.9672375,193.05997 L 5.3545575,193.05997 L 6.5164975,193.05997 L 9.6150275,192.67251 L 9.2277075,189.96028 L 8.8403975,189.57282 L 9.6150275,189.18536 L 10.002347,189.57282 L 10.389658,189.57282 L 10.389658,189.18536 L 10.776977,189.18536 L 11.164288,189.18536 L 11.164288,188.7979 L 11.551608,188.7979 L 11.938928,189.18536 L 12.326238,189.57282 L 12.713558,189.18536 L 12.326238,188.41043 L 13.100868,188.02297 L 13.488188,188.41043 L 14.262818,188.7979 L 14.650138,189.18536 L 15.424768,189.57282 L 15.812088,189.57282 L 15.812088,189.18536 L 16.586717,189.18536 L 17.361347,189.96028 L 17.748667,189.96028 L 18.135977,190.34774 L 18.135977,190.7352 L 19.297927,190.7352 L 19.685237,191.12266 L 19.685237,190.7352 L 21.234507,191.12266 L 21.621817,191.12266 L 22.009137,191.89758 L 22.396457,191.89758 L 22.396457,191.51012 L 22.783767,191.89758 L 23.171087,192.28505 L 23.558397,192.28505 L 23.558397,192.67251 L 23.171087,193.05997 L 23.171087,193.83489 L 23.171087,194.99727 L 23.171087,195.7722 L 23.558397,196.15966 L 23.945717,196.15966 L 23.945717,195.7722 L 24.333037,196.15966 L 24.720347,196.15966 L 25.107667,196.15966 L 25.494977,196.15966 L 25.882297,196.15966 L 26.269617,196.15966 L 26.656927,196.15966 L 27.044247,196.15966 L 27.818877,195.38474 L 28.206197,195.38474 L 28.593507,195.38474 L 28.593507,196.15966 L 28.206197,196.15966 L 27.818877,196.54712 L 28.206197,196.93458 L 28.593507,196.93458 L 28.980827,196.93458 L 29.755457,196.54712 L 30.142777,196.54712 L 29.755457,195.7722 L 30.530087,195.38474 L 30.917407,196.15966 L 31.304717,196.15966 L 31.304717,195.7722 L 31.692037,195.7722 L 32.079347,195.7722 L 32.466667,195.38474 L 32.466667,194.99727 L 33.241297,194.99727 L 33.628617,194.22235 L 34.015927,194.22235 L 34.403247,193.83489 L 35.177877,193.44743 L 35.565197,193.44743 L 35.565197,193.83489 L 35.952507,193.83489 L 36.339827,193.44743 L 36.339827,193.83489 L 37.114457,193.83489 L 37.501777,193.44743 L 37.889087,193.44743 L 38.276407,193.05997 L 39.051037,192.28505 L 39.825667,191.89758 L 40.600307,191.51012 L 42.536877,189.96028 L 42.924197,189.57282 L 46.797357,184.92328 L 46.410037,184.92328 L 46.410037,184.53582 L 46.022727,184.53582 L 46.022727,184.14836 L 46.022727,183.7609 L 45.635407,184.14836 L 45.635407,183.7609 L 45.635407,183.37344 L 45.248097,182.98598 L 44.860777,182.98598 L 44.473457,182.98598 L 44.860777,182.59852 L 44.473457,182.59852 L 44.086147,182.59852 L 44.086147,182.98598 L 43.698827,183.37344 L 43.698827,183.7609 L 44.086147,184.14836 L 44.473457,184.14836 L 44.473457,184.53582 L 44.473457,184.92328 L 44.086147,184.53582 L 43.698827,184.92328 L 44.086147,184.92328 L 43.698827,185.31074 L 44.086147,185.31074 L 44.086147,185.69821 L 43.698827,185.31074 L 42.924197,185.31074 L 43.311517,185.69821 L 43.311517,186.08567 L 42.924197,185.31074 L 42.536877,184.92328 L 42.149567,184.92328 L 42.536877,185.31074 L 42.924197,185.69821 L 42.536877,185.69821 L 42.536877,185.31074 L 42.149567,185.31074 L 41.762247,185.31074 L 41.374937,185.31074 L 41.374937,185.69821 L 41.762247,185.69821 L 41.762247,186.08567 L 41.374937,186.08567 L 40.600307,184.53582 L 40.212987,184.53582 L 39.051037,183.7609 L 39.051037,183.37344 L 38.663727,183.37344 L 38.663727,183.7609 L 37.114457,183.37344 L 36.727147,182.98598 L 36.727147,182.59852 L 36.339827,182.21105 L 36.339827,181.82359 L 35.952507,181.43613 L 36.339827,181.04867 L 35.952507,181.04867 L 35.565197,180.66121 L 35.565197,180.27375 L 34.790567,180.27375 L 34.403247,180.27375 L 34.015927,179.88629 L 33.241297,179.88629 L 32.853987,180.66121 L 32.853987,181.04867 L 32.466667,181.04867 L 32.466667,181.82359 L 32.466667,182.21105 L 32.466667,182.59852 L 32.466667,182.98598 L 32.079347,183.37344 L 31.304717,183.37344 L 30.142777,183.7609 L 29.368137,184.14836 L 28.980827,184.53582 L 28.593507,184.53582 L 28.593507,184.92328 L 27.818877,184.92328 L 27.818877,185.31074 L 27.431557,185.69821 L 27.044247,185.69821 L 26.269617,185.69821 L 25.882297,185.69821 L 25.494977,185.31074 L 25.107667,185.31074 L 25.107667,185.69821 L 24.720347,185.31074 L 24.720347,185.69821 L 24.720347,186.08567 L 24.333037,185.31074 L 24.333037,184.92328 L 23.945717,184.92328 L 23.558397,184.92328 L 23.558397,184.53582 L 22.396457,184.53582 L 22.396457,185.69821 L 21.621817,185.31074 L 21.621817,184.92328 L 22.009137,184.53582 L 21.621817,184.53582 L 20.847187,184.53582 L 20.459877,184.53582 L 20.072557,184.53582 L 19.685237,184.53582 L 19.685237,184.14836 L 19.297927,183.7609 L 18.910607,183.37344 L 18.523297,183.37344 L 18.523297,182.98598 L 18.135977,182.59852 L 16.974027,182.59852 L 16.199398,182.21105 L 15.812088,182.21105 L 14.650138,181.82359 L 14.262818,181.82359 L 14.262818,181.43613 L 13.875508,181.43613 L 13.100868,181.04867 L 12.713558,181.04867 L 12.326238,180.66121 L 11.938928,180.27375 L 11.551608,180.27375 L 11.164288,179.88629 L 10.776977,179.88629 L 10.776977,179.49883 L 9.6150275,179.49883 L 9.2277075,179.49883 L 8.4530775,179.49883 z M 43.698827,184.92328 L 43.311517,184.53582 L 42.924197,184.92328 L 43.698827,184.92328 z M 43.311517,184.53582 L 43.698827,184.53582 L 44.086147,184.53582 L 44.473457,184.53582 L 44.086147,184.14836 L 43.698827,184.14836 L 43.311517,184.14836 L 43.311517,184.53582 z M 44.086147,183.37344 L 44.473457,183.7609 L 44.086147,183.7609 L 44.086147,183.37344 z M 44.860777,183.37344 L 45.248097,183.37344 L 44.860777,183.7609 L 44.860777,183.37344 z M 42.149567,186.08567 L 42.536877,186.08567 L 42.536877,186.47313 L 42.149567,186.47313 L 42.149567,186.08567 z  M 44.860777,160.90069 L 44.860777,160.51323 L 44.473457,160.12576 L 44.086147,159.7383 L 44.086147,160.12576 L 43.698827,160.12576 L 42.924197,159.35084 L 43.311517,158.96338 L 43.311517,158.96338 L 42.924197,158.96338 L 42.924197,159.35084 L 42.149567,159.35084 L 42.149567,158.96338 L 42.924197,158.96338 L 42.924197,158.96338 L 44.086147,158.96338 L 44.473457,158.96338 L 44.473457,158.96338 L 44.086147,158.96338 L 44.086147,158.96338 L 43.698827,158.96338 L 43.698827,158.96338 L 43.698827,159.35084 L 43.698827,159.35084 L 44.473457,159.35084 L 44.473457,159.7383 L 44.860777,160.12576 L 44.860777,160.51323 L 44.860777,160.90069 L 44.860777,160.90069 L 44.860777,160.90069 z  M 31.692037,160.90069 L 31.304717,161.28815 L 30.917407,161.28815 L 30.917407,161.28815 L 30.530087,161.28815 L 30.530087,161.28815 L 29.755457,160.90069 L 29.368137,160.90069 L 29.368137,160.90069 L 30.142777,160.51323 L 30.142777,160.12576 L 30.142777,160.51323 L 29.368137,160.90069 L 28.980827,160.90069 L 29.368137,160.12576 L 28.980827,159.7383 L 28.980827,158.96338 L 28.593507,158.96338 L 28.593507,158.57592 L 28.593507,158.18846 L 28.206197,157.41354 L 27.431557,157.02607 L 27.044247,157.41354 L 27.044247,157.02607 L 25.882297,156.63861 L 25.882297,156.63861 L 25.882297,156.63861 L 25.882297,156.25115 L 25.882297,156.25115 L 25.882297,155.86369 L 25.494977,155.47623 L 24.720347,155.47623 L 24.333037,155.47623 L 23.945717,155.86369 L 23.945717,156.25115 L 24.333037,156.25115 L 24.720347,155.86369 L 25.107667,156.25115 L 24.720347,155.86369 L 24.333037,156.25115 L 23.558397,156.25115 L 23.171087,157.02607 L 22.396457,157.41354 L 22.396457,157.41354 L 22.396457,157.41354 L 22.396457,157.41354 L 22.009137,157.41354 L 21.621817,157.41354 L 20.847187,157.801 L 20.459877,158.18846 L 20.459877,158.96338 L 20.459877,158.96338 L 20.847187,158.96338 L 20.847187,159.35084 L 20.459877,159.35084 L 20.459877,159.35084 L 20.459877,159.35084 L 20.072557,158.96338 L 20.072557,158.96338 L 20.072557,158.96338 L 20.459877,158.96338 L 20.459877,158.96338 L 20.459877,158.18846 L 20.459877,158.18846 L 20.072557,157.801 L 19.685237,157.801 L 19.297927,157.801 L 19.297927,157.41354 L 18.910607,157.02607 L 18.523297,156.25115 L 18.523297,155.47623 L 18.523297,154.70131 L 18.523297,154.31385 L 18.910607,153.53892 L 19.685237,152.764 L 20.459877,152.37654 L 20.847187,152.37654 L 21.234507,152.37654 L 22.783767,151.98908 L 23.171087,151.60162 L 23.945717,151.60162 L 24.720347,151.60162 L 25.882297,151.98908 L 25.882297,151.60162 L 25.882297,151.60162 L 25.882297,151.21416 L 26.269617,150.82669 L 26.269617,150.43923 L 26.656927,150.43923 L 27.044247,150.43923 L 26.656927,150.82669 L 27.044247,150.82669 L 26.656927,151.21416 L 26.656927,151.21416 L 26.656927,151.21416 L 26.656927,151.21416 L 26.656927,150.82669 L 26.656927,150.82669 L 26.269617,150.82669 L 26.269617,151.21416 L 25.882297,151.98908 L 26.269617,151.98908 L 26.656927,151.98908 L 27.044247,151.98908 L 27.431557,151.98908 L 27.431557,151.98908 L 27.431557,151.98908 L 28.593507,151.98908 L 29.368137,151.60162 L 29.368137,151.60162 L 29.755457,151.98908 L 29.755457,151.98908 L 30.142777,152.37654 L 30.142777,152.764 L 30.530087,152.764 L 30.530087,152.764 L 30.917407,152.764 L 31.304717,152.764 L 32.079347,152.37654 L 32.466667,152.764 L 33.628617,152.764 L 33.628617,152.764 L 33.628617,153.15146 L 33.628617,153.15146 L 33.628617,152.764 L 34.015927,153.15146 L 34.015927,153.92638 L 34.015927,153.92638 L 34.403247,154.31385 L 35.177877,155.08877 L 35.565197,155.86369 L 35.565197,156.63861 L 35.952507,156.63861 L 36.727147,156.63861 L 37.114457,156.63861 L 37.889087,157.02607 L 37.889087,157.02607 L 39.051037,157.801 L 39.438357,157.801 L 39.438357,157.801 L 39.438357,158.18846 L 39.825667,158.18846 L 40.600307,157.41354 L 40.987617,157.41354 L 41.374937,157.41354 L 41.374937,157.41354 L 42.536877,157.41354 L 42.536877,157.41354 L 42.924197,157.02607 L 43.311517,157.02607 L 43.311517,157.801 L 43.311517,158.18846 L 43.698827,158.18846 L 43.698827,158.18846 L 43.311517,158.57592 L 43.311517,158.57592 L 42.924197,158.57592 L 43.311517,158.18846 L 43.311517,158.18846 L 42.924197,157.801 L 42.924197,157.41354 L 42.536877,157.41354 L 42.536877,157.801 L 42.149567,157.41354 L 40.987617,157.801 L 40.600307,157.801 L 40.212987,158.18846 L 39.825667,158.18846 L 39.825667,158.57592 L 40.212987,158.96338 L 40.212987,158.96338 L 40.212987,159.35084 L 40.212987,159.35084 L 40.212987,159.35084 L 40.212987,159.35084 L 39.825667,159.7383 L 40.212987,159.7383 L 40.212987,159.35084 L 39.825667,159.7383 L 39.825667,160.12576 L 39.438357,160.12576 L 39.051037,160.51323 L 38.663727,161.28815 L 38.276407,161.28815 L 37.889087,161.67561 L 37.501777,161.28815 L 36.727147,161.67561 L 36.339827,162.06307 L 35.565197,162.06307 L 35.565197,162.45053 L 34.403247,162.45053 L 34.015927,162.45053 L 33.241297,162.45053 L 32.853987,162.45053 L 32.853987,162.45053 L 32.079347,161.67561 L 32.079347,161.67561 L 32.079347,161.67561 L 31.692037,160.90069 L 31.692037,160.90069 z  M 27.818877,168.64991 L 27.818877,168.26245 L 27.431557,168.26245 L 27.818877,168.26245 L 27.818877,168.26245 L 27.818877,168.64991 L 27.818877,168.64991 L 27.818877,168.64991 z  M 26.656927,163.22545 L 26.656927,163.22545 L 27.044247,163.22545 L 27.044247,163.22545 L 27.044247,163.61292 L 27.431557,163.61292 L 27.818877,163.61292 L 28.206197,164.00038 L 28.206197,164.38784 L 28.593507,165.16276 L 28.980827,165.55022 L 28.980827,165.93768 L 28.980827,165.93768 L 29.368137,165.93768 L 29.368137,166.32514 L 29.368137,166.7126 L 29.368137,166.7126 L 29.368137,167.10007 L 29.368137,167.10007 L 28.980827,167.48753 L 28.206197,167.48753 L 28.206197,167.48753 L 28.206197,167.48753 L 27.818877,168.26245 L 27.818877,168.26245 L 27.044247,168.26245 L 26.656927,167.87499 L 26.269617,167.48753 L 26.269617,167.48753 L 25.494977,167.48753 L 25.107667,167.48753 L 25.107667,167.87499 L 24.720347,167.87499 L 24.720347,167.87499 L 24.333037,167.87499 L 23.558397,167.87499 L 23.171087,167.48753 L 22.396457,167.48753 L 20.847187,167.87499 L 20.459877,168.26245 L 20.072557,169.03737 L 19.685237,169.03737 L 19.297927,169.81229 L 19.297927,169.81229 L 19.297927,169.42483 L 18.910607,169.03737 L 19.297927,168.64991 L 19.297927,168.26245 L 19.297927,167.87499 L 18.523297,167.10007 L 18.910607,167.10007 L 18.910607,166.7126 L 19.297927,166.32514 L 19.297927,166.32514 L 18.910607,166.7126 L 18.910607,166.7126 L 18.523297,167.10007 L 18.523297,167.10007 L 18.135977,166.7126 L 17.748667,166.32514 L 17.361347,166.32514 L 16.974027,165.93768 L 16.586717,165.93768 L 16.586717,165.16276 L 16.199398,165.16276 L 16.199398,164.7753 L 16.199398,164.38784 L 16.586717,164.38784 L 16.586717,164.38784 L 16.199398,164.38784 L 15.812088,164.38784 L 15.812088,164.38784 L 15.812088,164.38784 L 16.974027,164.00038 L 18.135977,163.61292 L 18.135977,163.22545 L 18.135977,163.22545 L 18.523297,163.22545 L 18.523297,163.22545 L 18.523297,163.61292 L 18.910607,163.61292 L 19.297927,163.61292 L 19.685237,164.00038 L 20.072557,164.00038 L 20.459877,164.38784 L 20.459877,164.38784 L 20.847187,164.38784 L 21.234507,164.00038 L 21.621817,164.00038 L 22.396457,163.61292 L 22.396457,163.61292 L 23.171087,164.00038 L 23.558397,163.61292 L 23.558397,163.61292 L 24.333037,163.22545 L 24.333037,163.22545 L 25.107667,163.22545 L 25.494977,163.61292 L 26.269617,163.22545 L 26.656927,163.22545 L 26.656927,163.22545 z " fill="#ffffff" fill-rule="evenodd"/>
  </g>
</svg>
